<svg xmlns="http://www.w3.org/2000/svg" shape-rendering="geometricPrecision" text-rendering="geometricPrecision" image-rendering="optimizeQuality" fill-rule="evenodd" clip-rule="evenodd" viewBox="0 0 512 511.86"><path d="M70.93 511.86H1.24L0 441.41l53.62 1.25 1.24-56.11 56.11-1.23v-54.87l48.19-14.79 10.72-10.71c15.98 18.9 35.28 38.2 54.05 53.92l-153 152.99zm224.38-327 3.01 3 4.43-4.43c7.32-7.32 19.28-7.3 26.6.01 7.31 7.31 7.31 19.28 0 26.59l-4.43 4.43 2.55 2.56c.57.56.57 1.51 0 2.08l-24.46 24.46c-.57.57-1.51.57-2.08 0l-32.38-32.39c-.57-.56-.57-1.51 0-2.08l24.47-24.47c.47-.44 1.15-.53 1.7-.25.26.13.4.29.59.49zm24.44 24.43 4.51-4.51c4.46-4.47 4.46-11.8 0-16.27-4.47-4.47-11.8-4.47-16.27 0l-4.51 4.51 16.27 16.27zm192.2-44.01c-1.06 24.27-11.25 48.85-29.12 68.96-29.67 33.4-91.34 96.79-130.29 121.13-24.77 15.48-40.62 18.23-59.98 19.29-39.48 2.17-154.71-115.25-153.44-153.23.73-21.76 3.63-39.35 19.77-65.44 23.05-37.26 87.08-97.73 118.91-126.36C297.28 12.12 321.73 1.65 345.93.11c64.93-4.13 168.61 106.15 166.02 165.17zM422.21 89.9c20.27 20.27 30.45 42.95 22.73 50.67-7.72 7.72-30.41-2.46-50.68-22.73s-30.45-42.96-22.73-50.68c7.72-7.71 30.41 2.46 50.68 22.74zM310.5 120.68l80.93 80.93c2.63 2.63 2.61 6.96 0 9.56l-78.62 78.62c-2.6 2.61-6.95 2.61-9.57 0l-80.92-80.93c-2.61-2.61-2.64-6.93 0-9.57l78.61-78.62c2.63-2.63 6.94-2.63 9.57.01z"/></svg>